<mxfile host="app.diagrams.net" modified="2023-02-12T14:52:42.009Z" agent="5.0 (Macintosh; Intel Mac OS X 10_15_7) AppleWebKit/537.36 (KHTML, like Gecko) Chrome/108.0.0.0 Safari/537.36" version="20.7.2" etag="Id8FskOwXwORrnG7bXgN" type="github">
  <diagram id="sM8lzJNaa8BjBJN-WWW1" name="第 1 页">
    <mxGraphModel dx="2069" dy="1907" grid="1" gridSize="10" guides="1" tooltips="1" connect="1" arrows="1" fold="1" page="1" pageScale="1" pageWidth="827" pageHeight="1169" math="0" shadow="0">
      <root>
        <mxCell id="0" />
        <mxCell id="1" parent="0" />
        <mxCell id="9MdT7GAMhbWQTBxMyOs3-8" value="" style="rounded=1;whiteSpace=wrap;html=1;fontSize=24;dashed=1;sketch=1;curveFitting=1;jiggle=2;dashPattern=1 4;" vertex="1" parent="1">
          <mxGeometry x="25" y="200" width="770" height="110" as="geometry" />
        </mxCell>
        <mxCell id="9MdT7GAMhbWQTBxMyOs3-4" value="" style="rounded=1;whiteSpace=wrap;html=1;fontSize=24;dashed=1;sketch=1;curveFitting=1;jiggle=2;" vertex="1" parent="1">
          <mxGeometry x="25" y="330" width="770" height="110" as="geometry" />
        </mxCell>
        <mxCell id="9MdT7GAMhbWQTBxMyOs3-1" value="&lt;font style=&quot;font-size: 24px;&quot;&gt;微信&lt;/font&gt;" style="rounded=0;whiteSpace=wrap;html=1;fillColor=#97D077;sketch=1;curveFitting=1;jiggle=2;" vertex="1" parent="1">
          <mxGeometry x="40" y="350" width="200" height="60" as="geometry" />
        </mxCell>
        <mxCell id="9MdT7GAMhbWQTBxMyOs3-2" value="&lt;font style=&quot;font-size: 24px;&quot;&gt;企微&lt;/font&gt;" style="rounded=0;whiteSpace=wrap;html=1;fillColor=#9999FF;sketch=1;curveFitting=1;jiggle=2;" vertex="1" parent="1">
          <mxGeometry x="310" y="350" width="200" height="60" as="geometry" />
        </mxCell>
        <mxCell id="9MdT7GAMhbWQTBxMyOs3-3" value="&lt;font style=&quot;font-size: 24px;&quot;&gt;Kakaotalk&lt;/font&gt;" style="rounded=0;whiteSpace=wrap;html=1;fillColor=#FFCE9F;sketch=1;curveFitting=1;jiggle=2;" vertex="1" parent="1">
          <mxGeometry x="580" y="350" width="200" height="60" as="geometry" />
        </mxCell>
        <mxCell id="9MdT7GAMhbWQTBxMyOs3-5" value="功能破解" style="rounded=0;whiteSpace=wrap;html=1;sketch=1;fontSize=24;" vertex="1" parent="1">
          <mxGeometry x="50" y="225" width="350" height="60" as="geometry" />
        </mxCell>
        <mxCell id="9MdT7GAMhbWQTBxMyOs3-6" value="防封号" style="rounded=0;whiteSpace=wrap;html=1;sketch=1;fontSize=24;" vertex="1" parent="1">
          <mxGeometry x="430" y="225" width="350" height="60" as="geometry" />
        </mxCell>
        <mxCell id="9MdT7GAMhbWQTBxMyOs3-11" value="" style="rounded=1;whiteSpace=wrap;html=1;fontSize=24;dashed=1;sketch=1;curveFitting=1;jiggle=2;dashPattern=1 4;" vertex="1" parent="1">
          <mxGeometry x="25" y="70" width="770" height="110" as="geometry" />
        </mxCell>
        <mxCell id="9MdT7GAMhbWQTBxMyOs3-12" value="&lt;font style=&quot;font-size: 24px;&quot;&gt;长链接&lt;/font&gt;" style="rounded=0;whiteSpace=wrap;html=1;sketch=1;curveFitting=1;jiggle=2;" vertex="1" parent="1">
          <mxGeometry x="50" y="95" width="150" height="60" as="geometry" />
        </mxCell>
        <mxCell id="9MdT7GAMhbWQTBxMyOs3-13" value="&lt;font style=&quot;font-size: 24px;&quot;&gt;进程通信&lt;/font&gt;" style="rounded=0;whiteSpace=wrap;html=1;sketch=1;curveFitting=1;jiggle=2;" vertex="1" parent="1">
          <mxGeometry x="240" y="95" width="150" height="60" as="geometry" />
        </mxCell>
        <mxCell id="9MdT7GAMhbWQTBxMyOs3-14" value="&lt;font style=&quot;font-size: 24px;&quot;&gt;IM控制&lt;/font&gt;" style="rounded=0;whiteSpace=wrap;html=1;sketch=1;curveFitting=1;jiggle=2;" vertex="1" parent="1">
          <mxGeometry x="430" y="95" width="150" height="60" as="geometry" />
        </mxCell>
        <mxCell id="9MdT7GAMhbWQTBxMyOs3-16" value="&lt;font style=&quot;font-size: 24px;&quot;&gt;……&lt;/font&gt;" style="rounded=0;whiteSpace=wrap;html=1;sketch=1;curveFitting=1;jiggle=2;" vertex="1" parent="1">
          <mxGeometry x="620" y="95" width="150" height="60" as="geometry" />
        </mxCell>
        <mxCell id="9MdT7GAMhbWQTBxMyOs3-17" value="工具层" style="text;html=1;strokeColor=none;fillColor=none;align=center;verticalAlign=middle;whiteSpace=wrap;rounded=0;dashed=1;dashPattern=1 4;sketch=1;fontSize=38;" vertex="1" parent="1">
          <mxGeometry x="-160" y="365" width="130" height="30" as="geometry" />
        </mxCell>
        <mxCell id="9MdT7GAMhbWQTBxMyOs3-18" value="逆向层" style="text;html=1;strokeColor=none;fillColor=none;align=center;verticalAlign=middle;whiteSpace=wrap;rounded=0;dashed=1;dashPattern=1 4;sketch=1;fontSize=38;" vertex="1" parent="1">
          <mxGeometry x="-160" y="240" width="130" height="30" as="geometry" />
        </mxCell>
        <mxCell id="9MdT7GAMhbWQTBxMyOs3-19" value="逻辑层" style="text;html=1;strokeColor=none;fillColor=none;align=center;verticalAlign=middle;whiteSpace=wrap;rounded=0;dashed=1;dashPattern=1 4;sketch=1;fontSize=38;" vertex="1" parent="1">
          <mxGeometry x="-160" y="110" width="130" height="30" as="geometry" />
        </mxCell>
        <mxCell id="9MdT7GAMhbWQTBxMyOs3-22" value="Node服务" style="rounded=1;whiteSpace=wrap;html=1;sketch=1;fontSize=38;gradientColor=none;fillColor=#F19C99;" vertex="1" parent="1">
          <mxGeometry x="27.5" y="-70" width="765" height="60" as="geometry" />
        </mxCell>
        <mxCell id="9MdT7GAMhbWQTBxMyOs3-23" value="&lt;font style=&quot;font-size: 24px;&quot;&gt;登入登出&lt;/font&gt;" style="rounded=0;whiteSpace=wrap;html=1;sketch=1;fontSize=38;" vertex="1" parent="1">
          <mxGeometry x="37.5" y="-130" width="125" height="60" as="geometry" />
        </mxCell>
        <mxCell id="9MdT7GAMhbWQTBxMyOs3-24" value="&lt;font style=&quot;font-size: 24px;&quot;&gt;收发消息&lt;/font&gt;" style="rounded=0;whiteSpace=wrap;html=1;sketch=1;fontSize=38;" vertex="1" parent="1">
          <mxGeometry x="162.5" y="-130" width="125" height="60" as="geometry" />
        </mxCell>
        <mxCell id="9MdT7GAMhbWQTBxMyOs3-25" value="&lt;font style=&quot;font-size: 24px;&quot;&gt;群组管理&lt;/font&gt;" style="rounded=0;whiteSpace=wrap;html=1;sketch=1;fontSize=38;" vertex="1" parent="1">
          <mxGeometry x="287.5" y="-130" width="125" height="60" as="geometry" />
        </mxCell>
        <mxCell id="9MdT7GAMhbWQTBxMyOs3-26" value="&lt;font style=&quot;font-size: 24px;&quot;&gt;好友管理&lt;/font&gt;" style="rounded=0;whiteSpace=wrap;html=1;sketch=1;fontSize=38;" vertex="1" parent="1">
          <mxGeometry x="412.5" y="-130" width="125" height="60" as="geometry" />
        </mxCell>
        <mxCell id="9MdT7GAMhbWQTBxMyOs3-27" value="&lt;font style=&quot;font-size: 24px;&quot;&gt;好友管理&lt;/font&gt;" style="rounded=0;whiteSpace=wrap;html=1;sketch=1;fontSize=38;" vertex="1" parent="1">
          <mxGeometry x="537.5" y="-130" width="125" height="60" as="geometry" />
        </mxCell>
        <mxCell id="9MdT7GAMhbWQTBxMyOs3-28" value="&lt;font style=&quot;font-size: 24px;&quot;&gt;……&lt;/font&gt;" style="rounded=0;whiteSpace=wrap;html=1;sketch=1;fontSize=38;" vertex="1" parent="1">
          <mxGeometry x="662.5" y="-130" width="125" height="60" as="geometry" />
        </mxCell>
        <mxCell id="9MdT7GAMhbWQTBxMyOs3-29" value="" style="shape=flexArrow;endArrow=classic;startArrow=classic;html=1;rounded=0;fontSize=24;fillColor=#666666;" edge="1" parent="1">
          <mxGeometry width="100" height="100" relative="1" as="geometry">
            <mxPoint x="399" y="70" as="sourcePoint" />
            <mxPoint x="399" y="-10" as="targetPoint" />
          </mxGeometry>
        </mxCell>
        <mxCell id="9MdT7GAMhbWQTBxMyOs3-30" value="通讯" style="text;html=1;strokeColor=none;fillColor=none;align=center;verticalAlign=middle;whiteSpace=wrap;rounded=0;sketch=1;fontSize=24;fontStyle=1" vertex="1" parent="1">
          <mxGeometry x="412.5" y="20" width="60" height="30" as="geometry" />
        </mxCell>
        <mxCell id="9MdT7GAMhbWQTBxMyOs3-32" value="服务层" style="text;html=1;strokeColor=none;fillColor=none;align=center;verticalAlign=middle;whiteSpace=wrap;rounded=0;dashed=1;dashPattern=1 4;sketch=1;fontSize=38;" vertex="1" parent="1">
          <mxGeometry x="-160" y="-55" width="130" height="30" as="geometry" />
        </mxCell>
        <mxCell id="9MdT7GAMhbWQTBxMyOs3-34" value="" style="rounded=1;whiteSpace=wrap;html=1;fontSize=24;dashed=1;sketch=1;curveFitting=1;jiggle=2;dashPattern=1 4;" vertex="1" parent="1">
          <mxGeometry x="27.5" y="-360" width="770" height="110" as="geometry" />
        </mxCell>
        <mxCell id="9MdT7GAMhbWQTBxMyOs3-38" value="&lt;font style=&quot;font-size: 24px;&quot;&gt;超核&lt;/font&gt;" style="rounded=0;whiteSpace=wrap;html=1;fillColor=#97D077;sketch=1;curveFitting=1;jiggle=2;" vertex="1" parent="1">
          <mxGeometry x="50" y="-335" width="170" height="60" as="geometry" />
        </mxCell>
        <mxCell id="9MdT7GAMhbWQTBxMyOs3-40" value="&lt;font style=&quot;font-size: 24px;&quot;&gt;知己&lt;/font&gt;" style="rounded=0;whiteSpace=wrap;html=1;fillColor=#9999FF;sketch=1;curveFitting=1;jiggle=2;" vertex="1" parent="1">
          <mxGeometry x="240" y="-335" width="170" height="60" as="geometry" />
        </mxCell>
        <mxCell id="9MdT7GAMhbWQTBxMyOs3-42" value="&lt;font style=&quot;font-size: 24px;&quot;&gt;指挥官&lt;/font&gt;" style="rounded=0;whiteSpace=wrap;html=1;fillColor=#9999FF;sketch=1;curveFitting=1;jiggle=2;" vertex="1" parent="1">
          <mxGeometry x="430" y="-335" width="170" height="60" as="geometry" />
        </mxCell>
        <mxCell id="9MdT7GAMhbWQTBxMyOs3-43" value="&lt;font style=&quot;font-size: 24px;&quot;&gt;Vlink&lt;/font&gt;" style="rounded=0;whiteSpace=wrap;html=1;fillColor=#FFCE9F;sketch=1;curveFitting=1;jiggle=2;" vertex="1" parent="1">
          <mxGeometry x="620" y="-335" width="160" height="60" as="geometry" />
        </mxCell>
        <mxCell id="9MdT7GAMhbWQTBxMyOs3-44" value="业务层" style="text;html=1;strokeColor=none;fillColor=none;align=center;verticalAlign=middle;whiteSpace=wrap;rounded=0;dashed=1;dashPattern=1 4;sketch=1;fontSize=38;" vertex="1" parent="1">
          <mxGeometry x="-160" y="-320" width="130" height="30" as="geometry" />
        </mxCell>
        <mxCell id="9MdT7GAMhbWQTBxMyOs3-46" value="" style="shape=flexArrow;endArrow=classic;html=1;rounded=0;fontSize=24;fillColor=#666666;" edge="1" parent="1">
          <mxGeometry width="50" height="50" relative="1" as="geometry">
            <mxPoint x="400" y="-140" as="sourcePoint" />
            <mxPoint x="400" y="-240" as="targetPoint" />
          </mxGeometry>
        </mxCell>
        <mxCell id="9MdT7GAMhbWQTBxMyOs3-47" value="服务" style="text;html=1;strokeColor=none;fillColor=none;align=center;verticalAlign=middle;whiteSpace=wrap;rounded=0;sketch=1;fontSize=24;fontStyle=1" vertex="1" parent="1">
          <mxGeometry x="414" y="-200" width="60" height="30" as="geometry" />
        </mxCell>
      </root>
    </mxGraphModel>
  </diagram>
</mxfile>
